<svg width="16" height="19" viewBox="0 0 16 19" fill="none" xmlns="http://www.w3.org/2000/svg">
<path fill-rule="evenodd" clip-rule="evenodd" d="M2.875 5.625C2.875 2.79454 5.16954 0.5 8 0.5C10.8305 0.5 13.125 2.79454 13.125 5.625V6.75H14.875H15.625V7.5V17.5V18.25H14.875H1.125H0.375V17.5V7.5V6.75H1.125H2.875V5.625ZM11.625 5.625V6.75H4.375V5.625C4.375 3.62297 5.99797 2 8 2C10.002 2 11.625 3.62297 11.625 5.625ZM1.875 8.25V16.75H14.125V8.25H1.875ZM6.46015 12.3045C6.60055 12.6434 6.84888 12.9266 7.16662 13.11V15H8.83328V13.11C9.15102 12.9266 9.39935 12.6434 9.53975 12.3045C9.68015 11.9655 9.70478 11.5897 9.60983 11.2353C9.51487 10.8809 9.30563 10.5678 9.01455 10.3444C8.72348 10.1211 8.36684 10 7.99995 10C7.63306 10 7.27642 10.1211 6.98535 10.3444C6.69427 10.5678 6.48503 10.8809 6.39007 11.2353C6.29511 11.5897 6.31975 11.9655 6.46015 12.3045Z" fill="#444749"/>
</svg>
